<svg version="1.1" id="Layer_1" xmlns="http://www.w3.org/2000/svg" xmlns:xlink="http://www.w3.org/1999/xlink" x="0px" y="0px"
	 width="100%" viewBox="0 0 1654 2339" enable-background="new 0 0 1654 2339" xml:space="preserve">
<path fill="#FF8D00" opacity="0.000000" stroke="none" 
	d="
M562.000000,2340.000000 
	C374.666656,2340.000000 187.833328,2340.000000 1.000000,2340.000000 
	C1.000000,1560.333374 1.000000,780.666687 1.000000,1.000000 
	C552.333313,1.000000 1103.666626,1.000000 1655.000000,1.000000 
	C1655.000000,780.666687 1655.000000,1560.333374 1655.000000,2340.000000 
	C1290.833374,2340.000000 926.666687,2340.000000 562.000000,2340.000000 
M447.650391,1598.756958 
	C439.758545,1599.237427 431.850616,1599.537354 423.978424,1600.238525 
	C410.272156,1601.458862 396.588959,1602.938232 382.893829,1604.285400 
	C377.504364,1604.815674 372.103333,1605.231079 366.717468,1605.793823 
	C362.182678,1606.267700 357.647156,1606.777832 353.138824,1607.451782 
	C345.085754,1608.655396 337.065491,1610.080811 329.008087,1611.252319 
	C321.420837,1612.355591 313.694489,1612.747192 306.225769,1614.360962 
	C295.964020,1616.578369 285.976288,1620.073364 275.706696,1622.242310 
	C265.083588,1624.485962 255.183990,1628.287476 245.679230,1633.377686 
	C237.776337,1637.610107 231.620682,1643.402466 228.564087,1652.044922 
	C224.832352,1662.596313 229.022156,1675.459961 238.788452,1681.384888 
	C246.692261,1686.179810 254.767517,1690.960571 263.323090,1694.338379 
	C272.159973,1697.827148 281.586334,1699.988403 290.906982,1702.038940 
	C299.776855,1703.990601 308.842255,1705.054932 317.823395,1706.498779 
	C326.334991,1707.867188 334.833252,1709.331421 343.367493,1710.540894 
	C348.238434,1711.231201 353.191986,1711.330078 358.069366,1711.985229 
	C371.304565,1713.762695 384.499603,1715.848755 397.748138,1717.513550 
	C407.168060,1718.697144 416.638000,1719.535645 426.105255,1720.277222 
	C439.716461,1721.343262 453.341492,1722.245728 466.968353,1723.093628 
	C476.513123,1723.687744 486.071655,1724.057495 495.622406,1724.558716 
	C503.525879,1724.973389 511.422333,1725.562500 519.330078,1725.846802 
	C535.207092,1726.417603 551.091736,1727.299805 566.969666,1727.231445 
	C633.337524,1726.945679 699.704468,1726.398682 766.070679,1725.827515 
	C775.480774,1725.746582 784.884766,1724.997925 794.292236,1724.571777 
	C805.174316,1724.078857 816.067993,1723.770996 826.936340,1723.068359 
	C837.742188,1722.369873 848.515076,1721.175049 859.316345,1720.389771 
	C873.596863,1719.351685 887.893677,1718.538696 902.177979,1717.549683 
	C907.732544,1717.165161 913.291443,1716.719482 918.814209,1716.028687 
	C928.994995,1714.755249 939.132263,1713.123169 949.321899,1711.933716 
	C959.089966,1710.793579 968.988647,1710.556885 978.673035,1708.967285 
	C992.436157,1706.708008 1006.045654,1703.523438 1019.739136,1700.827393 
	C1036.598145,1697.508057 1052.676270,1692.311401 1067.149170,1682.661499 
	C1075.455200,1677.123291 1081.870117,1663.421021 1079.370972,1655.321045 
	C1075.257935,1641.991211 1065.528320,1634.217773 1053.129150,1629.475708 
	C1045.589722,1626.592163 1037.761475,1624.422852 1029.981934,1622.218628 
	C1021.432617,1619.796387 1012.841980,1617.467163 1004.168335,1615.556519 
	C999.239624,1614.470825 994.085083,1614.456909 989.074280,1613.686768 
	C981.698730,1612.553223 974.382080,1611.030884 967.000916,1609.941040 
	C959.250549,1608.796753 951.455627,1607.951782 943.676392,1607.006470 
	C939.627380,1606.514526 935.562134,1606.151367 931.518677,1605.619995 
	C921.335693,1604.281860 911.184692,1602.658813 900.976440,1601.565796 
	C889.893433,1600.379395 878.768372,1599.544922 867.646851,1598.769287 
	C852.534729,1597.715454 837.411926,1596.801514 822.287048,1595.945312 
	C812.068970,1595.366943 801.838135,1595.016846 791.615295,1594.518433 
	C783.043945,1594.100708 774.480713,1593.456299 765.905334,1593.193970 
	C746.864502,1592.611206 727.816345,1591.739502 708.774780,1591.821655 
	C666.402527,1592.004639 624.032532,1592.700806 581.483704,1592.338623 
	C583.998779,1581.439575 586.513855,1570.540405 589.961792,1559.631836 
	C666.446350,1559.632812 742.930908,1559.630737 819.415466,1559.641846 
	C823.967346,1559.642578 828.056152,1558.725708 831.521484,1555.381592 
	C838.091064,1549.041138 845.158264,1543.193726 851.473328,1536.617798 
	C859.346008,1528.420166 866.718933,1519.738281 874.209656,1511.179688 
	C879.619202,1504.999146 885.191956,1498.921387 890.118164,1492.366577 
	C898.543274,1481.156006 906.936218,1469.878906 914.578918,1458.132935 
	C924.450195,1442.961792 933.878174,1427.479126 942.906006,1411.790527 
	C948.870178,1401.425903 954.178650,1390.636108 959.087891,1379.724854 
	C965.165344,1366.217163 970.470337,1352.363281 976.247192,1338.717529 
	C977.281372,1336.274780 978.441284,1332.961060 980.465942,1332.006714 
	C997.927856,1323.773804 1015.612854,1316.014771 1033.207886,1308.062622 
	C1044.171143,1303.107788 1055.067627,1298.004761 1066.040894,1293.072144 
	C1082.838257,1285.521362 1099.719238,1278.154785 1116.478027,1270.519775 
	C1124.240845,1266.983154 1131.751709,1262.897949 1139.461426,1259.239746 
	C1152.047241,1253.268433 1165.355225,1249.173462 1176.673340,1240.168701 
	C1188.564575,1230.707764 1199.509033,1220.544556 1208.180420,1208.237305 
	C1213.760620,1200.317505 1218.314941,1191.546143 1222.353638,1182.710693 
	C1225.422485,1175.996704 1227.905029,1168.715332 1228.938965,1161.443237 
	C1230.349121,1151.523804 1230.650024,1141.362793 1230.442017,1131.325806 
	C1230.294556,1124.209473 1229.312012,1116.892090 1227.297729,1110.079712 
	C1223.531372,1097.341187 1218.288940,1085.140381 1210.846924,1073.969116 
	C1203.548950,1063.013794 1194.560059,1053.561890 1184.076172,1045.865356 
	C1172.480835,1037.353027 1159.515625,1031.051392 1145.535889,1027.233398 
	C1139.283813,1025.526123 1132.930542,1023.290283 1126.563721,1023.078125 
	C1110.334473,1022.537170 1094.171509,1022.148193 1078.338379,1028.104736 
	C1060.307007,1034.888550 1041.710205,1040.169067 1023.360474,1046.107300 
	C1017.741516,1047.925659 1012.127136,1049.757935 1005.830261,1051.805054 
	C1004.566528,1043.358887 1003.639038,1036.263306 1002.418091,1029.218506 
	C1000.756226,1019.629944 998.925232,1010.069397 997.056152,1000.518494 
	C996.184448,996.064514 995.953003,991.172913 993.866699,987.328857 
	C988.089844,976.685242 978.016235,970.914551 967.016663,967.100891 
	C959.078247,964.348572 950.766846,962.636108 942.570679,960.673645 
	C935.155029,958.898071 927.712341,957.168274 920.203735,955.867798 
	C912.807861,954.586853 905.295898,953.992371 897.867615,952.878479 
	C886.280884,951.141235 874.763794,948.872803 863.140259,947.463867 
	C848.656494,945.708435 834.103333,944.495544 819.562927,943.248840 
	C811.520874,942.559265 803.443237,942.287598 795.382507,941.811890 
	C787.498474,941.346558 779.619995,940.763611 771.731140,940.407471 
	C759.665222,939.862854 747.593933,939.120667 735.522522,939.073730 
	C693.530640,938.910645 651.537109,938.872986 609.545593,939.072327 
	C590.311768,939.163635 571.078735,939.839478 551.849854,940.402954 
	C541.620850,940.702637 531.399414,941.291321 521.178223,941.819702 
	C513.448853,942.219238 505.720825,942.666565 498.000031,943.205139 
	C485.371216,944.086304 472.740814,944.964478 460.126282,946.024780 
	C450.989349,946.792725 441.860321,947.715942 432.758057,948.819702 
	C422.567780,950.055420 412.403992,951.519653 402.242554,952.980896 
	C389.503998,954.812683 376.564575,955.851196 364.103424,958.855957 
	C348.580444,962.598938 332.500061,965.062317 318.806519,974.596191 
	C311.386078,979.762512 306.353577,985.979126 304.970795,995.010803 
	C304.084045,1000.802490 303.143616,1006.593506 301.969299,1012.331970 
	C300.313812,1020.421692 298.103729,1028.408447 296.706757,1036.538086 
	C294.938873,1046.825928 293.582306,1057.193481 292.352966,1067.562622 
	C290.811920,1080.560913 288.608734,1093.580811 288.405029,1106.618042 
	C287.890015,1139.584717 287.240692,1172.598022 291.031006,1205.465820 
	C291.442932,1209.037720 291.959167,1212.602051 292.560577,1216.147095 
	C293.864807,1223.835205 295.189178,1231.521118 296.631378,1239.184204 
	C297.830048,1245.553711 299.083893,1251.918091 300.544861,1258.231201 
	C301.858459,1263.907593 303.511322,1269.504761 304.971436,1275.148193 
	C308.054443,1287.063477 310.759186,1299.090820 314.283173,1310.873413 
	C317.258545,1320.821899 320.966980,1330.568848 324.718475,1340.262817 
	C329.715302,1353.174683 334.658203,1366.135498 340.393646,1378.724854 
	C345.277710,1389.445435 351.242737,1399.674316 356.744995,1410.112427 
	C359.107300,1414.594116 361.304321,1419.179688 363.933533,1423.500610 
	C370.201691,1433.802124 376.503357,1444.092041 383.134521,1454.160645 
	C388.317139,1462.029907 393.863892,1469.673462 399.527191,1477.208130 
	C405.034760,1484.535767 410.833221,1491.648682 416.619476,1498.761841 
	C422.818878,1506.382935 429.153168,1513.894043 435.626740,1522.003784 
	C433.597839,1531.854614 431.701813,1541.735229 429.511566,1551.550049 
	C425.359253,1570.157104 430.960968,1584.871460 446.628540,1596.149658 
	C447.492035,1596.771240 447.990295,1597.900269 447.650391,1598.756958 
M624.245239,869.884216 
	C620.287537,878.593933 621.792786,887.878479 627.947510,892.720398 
	C634.189514,897.630859 642.495300,896.799377 650.214905,890.349548 
	C659.904358,882.254089 667.795593,872.891602 672.763855,861.002686 
	C675.041199,855.553040 677.500977,850.473877 676.992676,844.389404 
	C675.444702,825.858459 680.696045,806.810974 672.829590,788.769836 
	C671.142334,784.900269 669.748657,780.619629 667.068848,777.524963 
	C661.521667,771.119141 655.092773,765.485596 649.253540,759.319397 
	C647.022888,756.963806 645.283325,754.100830 643.552124,751.324402 
	C640.843140,746.979736 639.184082,741.566406 635.556641,738.295349 
	C628.223328,731.682312 624.804626,724.163635 624.779480,714.347473 
	C624.767212,709.577881 622.727844,704.818848 621.659363,700.043213 
	C621.338379,698.608765 621.008484,697.135010 621.002258,695.677917 
	C620.950195,683.518250 620.914368,671.357544 621.040527,659.198914 
	C621.057983,657.517456 621.481079,655.315430 622.583557,654.261169 
	C627.255981,649.793213 629.349548,644.515259 629.011292,638.119995 
	C628.952942,637.015564 629.131653,635.663208 629.734070,634.795654 
	C635.927368,625.877014 641.314941,616.152283 648.764404,608.423035 
	C655.996216,600.919556 657.967468,592.987000 656.681335,583.466675 
	C655.805786,576.985413 650.985901,571.999756 644.837463,570.826294 
	C638.040649,569.529053 631.884888,572.296021 628.365356,577.645691 
	C625.480713,582.030518 622.097717,586.087646 618.931641,590.287048 
	C614.169006,596.604065 609.030701,602.679688 604.769897,609.318542 
	C601.945679,613.719055 599.422241,618.755798 598.524353,623.819885 
	C597.692993,628.509338 596.742065,632.366638 593.627869,636.242981 
	C591.354675,639.072510 590.261475,643.563232 590.201172,647.338379 
	C589.879700,667.488708 589.972046,687.647461 590.134094,707.801636 
	C590.157410,710.698608 591.314209,713.591003 591.982971,716.477051 
	C592.640503,719.314758 593.595032,722.108948 593.971069,724.980896 
	C594.571899,729.570312 593.480713,734.896179 595.454468,738.687439 
	C600.046631,747.508057 602.124512,758.071594 611.349304,764.112549 
	C612.733826,765.019226 613.291565,767.150391 614.309448,768.662781 
	C616.698364,772.212341 618.806335,776.021912 621.627441,779.192993 
	C625.937134,784.037354 630.286194,789.069092 635.467834,792.860657 
	C642.388245,797.924500 644.647949,805.951172 645.382385,812.634277 
	C646.573181,823.470032 648.913635,835.231262 642.497925,845.725281 
	C638.121765,852.883118 636.739746,862.221252 627.580688,865.939148 
	C626.352661,866.437683 625.602661,868.113831 624.245239,869.884216 
M731.004944,754.368469 
	C735.690369,762.544312 740.387756,770.713379 745.043335,778.906250 
	C745.518127,779.741882 745.749573,780.717346 746.081299,781.632446 
	C747.201050,784.720947 748.294800,787.819153 749.435486,790.899902 
	C752.287109,798.601807 756.784912,806.118225 757.651611,814.034241 
	C759.039307,826.708557 758.066223,839.646301 757.964661,852.471680 
	C757.953857,853.832153 757.304993,855.305786 756.597839,856.520752 
	C754.280029,860.502563 751.506042,864.241882 749.441101,868.343079 
	C745.188416,876.789734 746.548950,884.562561 752.658264,889.034424 
	C759.067383,893.725647 767.937134,892.708435 774.520752,886.401733 
	C777.284302,883.754517 779.734375,880.775208 782.542480,878.180237 
	C787.132446,873.938538 789.066833,868.831665 789.015930,862.594177 
	C788.869141,844.605408 788.458435,826.594116 789.182007,808.633179 
	C789.555542,799.362671 786.270630,791.219177 783.147095,783.299744 
	C778.353333,771.145691 771.194519,759.947266 765.760437,748.014832 
	C762.176270,740.144470 757.930664,731.828430 757.364990,723.482544 
	C756.106323,704.911621 756.913818,686.196228 757.050781,667.540955 
	C757.066833,665.348328 757.949463,663.079224 758.793579,660.992432 
	C760.655640,656.388855 764.364929,651.895813 764.412781,647.327209 
	C764.512634,637.789124 771.072144,632.056519 775.641479,625.443054 
	C780.178101,618.877075 787.029724,613.953735 792.526428,607.996582 
	C798.940491,601.045288 798.519165,588.422974 792.039307,582.492737 
	C785.466187,576.477112 775.948425,577.532532 768.363281,584.703918 
	C765.462646,587.446289 761.689270,589.247253 758.655029,591.872009 
	C755.959290,594.203918 753.641174,597.003052 751.350525,599.757507 
	C750.425903,600.869446 750.163391,602.506653 749.350830,603.741089 
	C742.932678,613.492065 732.972778,621.447693 733.800781,634.867920 
	C733.861511,635.851501 732.795776,636.917664 732.218872,637.925476 
	C727.847961,645.560791 725.488342,653.492310 725.867310,662.573486 
	C726.470886,677.040283 725.947510,691.551147 726.050110,706.042358 
	C726.163391,722.037659 724.186157,738.256897 731.004944,754.368469 
z"/>
<path fill="#060104" opacity="1.000000" stroke="none" 
	d="
M435.428558,1521.453247 
	C429.153168,1513.894043 422.818878,1506.382935 416.619476,1498.761841 
	C410.833221,1491.648682 405.034760,1484.535767 399.527191,1477.208130 
	C393.863892,1469.673462 388.317139,1462.029907 383.134521,1454.160645 
	C376.503357,1444.092041 370.201691,1433.802124 363.933533,1423.500610 
	C361.304321,1419.179688 359.107300,1414.594116 356.744995,1410.112427 
	C351.242737,1399.674316 345.277710,1389.445435 340.393646,1378.724854 
	C334.658203,1366.135498 329.715302,1353.174683 324.718475,1340.262817 
	C320.966980,1330.568848 317.258545,1320.821899 314.283173,1310.873413 
	C310.759186,1299.090820 308.054443,1287.063477 304.971436,1275.148193 
	C303.511322,1269.504761 301.858459,1263.907593 300.544861,1258.231201 
	C299.083893,1251.918091 297.830048,1245.553711 296.631378,1239.184204 
	C295.189178,1231.521118 293.864807,1223.835205 292.560577,1216.147095 
	C291.959167,1212.602051 291.442932,1209.037720 291.031006,1205.465820 
	C287.240692,1172.598022 287.890015,1139.584717 288.405029,1106.618042 
	C288.608734,1093.580811 290.811920,1080.560913 292.352966,1067.562622 
	C293.582306,1057.193481 294.938873,1046.825928 296.706757,1036.538086 
	C298.103729,1028.408447 300.313812,1020.421692 301.969299,1012.331970 
	C303.143616,1006.593506 304.084045,1000.802490 304.970795,995.010803 
	C306.353577,985.979126 311.386078,979.762512 318.806519,974.596191 
	C332.500061,965.062317 348.580444,962.598938 364.103424,958.855957 
	C376.564575,955.851196 389.503998,954.812683 402.242554,952.980896 
	C412.403992,951.519653 422.567780,950.055420 432.758057,948.819702 
	C441.860321,947.715942 450.989349,946.792725 460.126282,946.024780 
	C472.740814,944.964478 485.371216,944.086304 498.000031,943.205139 
	C505.720825,942.666565 513.448853,942.219238 521.178223,941.819702 
	C531.399414,941.291321 541.620850,940.702637 551.849854,940.402954 
	C571.078735,939.839478 590.311768,939.163635 609.545593,939.072327 
	C651.537109,938.872986 693.530640,938.910645 735.522522,939.073730 
	C747.593933,939.120667 759.665222,939.862854 771.731140,940.407471 
	C779.619995,940.763611 787.498474,941.346558 795.382507,941.811890 
	C803.443237,942.287598 811.520874,942.559265 819.562927,943.248840 
	C834.103333,944.495544 848.656494,945.708435 863.140259,947.463867 
	C874.763794,948.872803 886.280884,951.141235 897.867615,952.878479 
	C905.295898,953.992371 912.807861,954.586853 920.203735,955.867798 
	C927.712341,957.168274 935.155029,958.898071 942.570679,960.673645 
	C950.766846,962.636108 959.078247,964.348572 967.016663,967.100891 
	C978.016235,970.914551 988.089844,976.685242 993.866699,987.328857 
	C995.953003,991.172913 996.184448,996.064514 997.056152,1000.518494 
	C998.925232,1010.069397 1000.756226,1019.629944 1002.418091,1029.218506 
	C1003.639038,1036.263306 1004.566528,1043.358887 1005.830261,1051.805054 
	C1012.127136,1049.757935 1017.741516,1047.925659 1023.360474,1046.107300 
	C1041.710205,1040.169067 1060.307007,1034.888550 1078.338379,1028.104736 
	C1094.171509,1022.148193 1110.334473,1022.537170 1126.563721,1023.078125 
	C1132.930542,1023.290283 1139.283813,1025.526123 1145.535889,1027.233398 
	C1159.515625,1031.051392 1172.480835,1037.353027 1184.076172,1045.865356 
	C1194.560059,1053.561890 1203.548950,1063.013794 1210.846924,1073.969116 
	C1218.288940,1085.140381 1223.531372,1097.341187 1227.297729,1110.079712 
	C1229.312012,1116.892090 1230.294556,1124.209473 1230.442017,1131.325806 
	C1230.650024,1141.362793 1230.349121,1151.523804 1228.938965,1161.443237 
	C1227.905029,1168.715332 1225.422485,1175.996704 1222.353638,1182.710693 
	C1218.314941,1191.546143 1213.760620,1200.317505 1208.180420,1208.237305 
	C1199.509033,1220.544556 1188.564575,1230.707764 1176.673340,1240.168701 
	C1165.355225,1249.173462 1152.047241,1253.268433 1139.461426,1259.239746 
	C1131.751709,1262.897949 1124.240845,1266.983154 1116.478027,1270.519775 
	C1099.719238,1278.154785 1082.838257,1285.521362 1066.040894,1293.072144 
	C1055.067627,1298.004761 1044.171143,1303.107788 1033.207886,1308.062622 
	C1015.612854,1316.014771 997.927856,1323.773804 980.465942,1332.006714 
	C978.441284,1332.961060 977.281372,1336.274780 976.247192,1338.717529 
	C970.470337,1352.363281 965.165344,1366.217163 959.087891,1379.724854 
	C954.178650,1390.636108 948.870178,1401.425903 942.906006,1411.790527 
	C933.878174,1427.479126 924.450195,1442.961792 914.578918,1458.132935 
	C906.936218,1469.878906 898.543274,1481.156006 890.118164,1492.366577 
	C885.191956,1498.921387 879.619202,1504.999146 874.209656,1511.179688 
	C866.718933,1519.738281 859.346008,1528.420166 851.473328,1536.617798 
	C845.158264,1543.193726 838.091064,1549.041138 831.521484,1555.381592 
	C828.056152,1558.725708 823.967346,1559.642578 819.415466,1559.641846 
	C742.930908,1559.630737 666.446350,1559.632812 589.509888,1559.256958 
	C589.363464,1557.267090 589.602356,1555.635986 589.985046,1554.039551 
	C592.665649,1542.855591 595.376038,1531.678711 598.539795,1520.491455 
	C604.244446,1520.463501 609.486755,1520.388306 614.727966,1520.432251 
	C669.445068,1520.892090 724.161926,1521.381348 778.879028,1521.834717 
	C787.711304,1521.907959 796.549500,1521.674438 805.375732,1521.916870 
	C809.870178,1522.040405 813.367798,1520.633057 816.341980,1517.362427 
	C826.334167,1506.374390 836.454529,1495.502075 846.375244,1484.450439 
	C851.858032,1478.342773 857.428345,1472.250366 862.274048,1465.648071 
	C871.043945,1453.698975 879.599915,1441.567993 887.687012,1429.149414 
	C895.601135,1416.996338 903.574646,1404.776123 910.161743,1391.890015 
	C919.524231,1373.574585 927.752197,1354.672607 936.238037,1335.918579 
	C939.562317,1328.571777 942.566589,1321.048096 945.186401,1313.422852 
	C948.236389,1304.545532 950.870728,1295.514526 953.381348,1286.465698 
	C956.024475,1276.939209 958.434021,1267.342773 960.709900,1257.721069 
	C962.614075,1249.670898 964.332581,1241.568970 965.846619,1233.436646 
	C967.157593,1226.394653 968.133118,1219.287231 969.127686,1212.190674 
	C969.742126,1207.806274 970.086365,1203.384766 970.601074,1198.985596 
	C971.967712,1187.306030 974.313416,1175.646606 974.525146,1163.947754 
	C974.860718,1145.410522 973.846802,1126.845581 973.261169,1108.296753 
	C972.974792,1099.227539 972.731323,1090.130859 971.802490,1081.115356 
	C970.869019,1072.055054 969.253540,1063.054199 967.662048,1054.076050 
	C966.503357,1047.540161 964.929504,1041.076538 963.477051,1034.594971 
	C962.788635,1031.522949 961.143433,1030.943481 957.979431,1031.802368 
	C947.503845,1034.645630 936.990173,1037.447510 926.351685,1039.564697 
	C914.866821,1041.850342 903.253662,1043.558105 891.644104,1045.131714 
	C879.336060,1046.800049 866.974182,1048.087158 854.621216,1049.403198 
	C844.843567,1050.444702 835.055115,1051.428589 825.251099,1052.169067 
	C810.975525,1053.247070 796.683472,1054.109131 782.395203,1055.012939 
	C774.177979,1055.532837 765.958069,1056.035767 757.732971,1056.400146 
	C745.507141,1056.941772 733.276917,1057.712280 721.046265,1057.757080 
	C676.592224,1057.919922 632.137085,1057.876099 587.682739,1057.757080 
	C581.627014,1057.740845 575.581116,1056.616821 569.517578,1056.428833 
	C560.363342,1056.144653 551.197632,1056.232788 542.034973,1055.770996 
	C544.050598,1044.987061 552.919250,1040.524292 560.232910,1034.939087 
	C564.375427,1031.775513 569.996643,1030.499023 573.999329,1027.212524 
	C580.100708,1022.202820 586.383057,1018.593018 594.892029,1018.778442 
	C607.599365,1019.177246 619.872681,1020.041138 632.144714,1020.023193 
	C646.204163,1020.002563 660.260864,1019.137207 674.321838,1018.750305 
	C694.207275,1018.203125 714.096985,1017.805908 733.982239,1017.252625 
	C747.218201,1016.884399 760.450012,1016.365540 773.682983,1015.896606 
	C786.086670,1015.456970 798.489563,1014.993469 810.892822,1014.542419 
	C811.891357,1014.506104 812.897034,1014.549805 813.888367,1014.448608 
	C827.395447,1013.069702 840.894958,1011.613586 854.408691,1010.303772 
	C860.790283,1009.685303 867.203186,1009.396667 873.592468,1008.848145 
	C878.005005,1008.469299 882.431824,1008.089172 886.798706,1007.379700 
	C897.385559,1005.659851 907.954834,1003.822327 918.502869,1001.878357 
	C923.317383,1000.991089 928.065002,999.740906 933.325256,998.545776 
	C932.455750,997.359619 932.233337,996.715576 931.900696,996.652344 
	C923.756348,995.104858 915.631836,993.408325 907.437439,992.181396 
	C899.201294,990.948242 890.884766,990.261536 882.619141,989.212341 
	C872.422852,987.917908 862.258606,986.359741 852.050903,985.169617 
	C842.456848,984.050964 832.835388,983.122192 823.205933,982.363403 
	C809.594177,981.290710 795.971252,980.324097 782.339478,979.551208 
	C770.946350,978.905151 759.534485,978.584229 748.129639,978.152527 
	C735.402771,977.670837 722.677490,976.969421 709.946228,976.825317 
	C690.116333,976.600830 670.280151,976.591553 650.450073,976.809998 
	C625.551819,977.084167 600.655579,977.609131 575.761597,978.166321 
	C562.686707,978.458984 549.609131,978.870789 536.550171,979.558838 
	C523.418823,980.250549 510.316345,981.948547 497.187866,982.108459 
	C483.640686,982.273499 470.242004,983.165161 456.830261,985.015259 
	C449.012573,986.093689 441.034912,985.975891 433.140259,986.548157 
	C429.069977,986.843140 425.006836,987.358093 420.970154,987.969543 
	C412.288147,989.284607 403.614227,990.661133 394.958282,992.137451 
	C388.077209,993.310974 381.229401,994.679260 374.363251,995.941528 
	C372.186798,996.341736 369.998871,996.679382 367.816193,997.045593 
	C367.826752,997.716370 367.837311,998.387085 367.847870,999.057861 
	C374.008789,1000.052612 380.175293,1001.014282 386.329529,1002.048950 
	C399.796906,1004.313293 413.230347,1006.798340 426.731750,1008.834534 
	C435.297089,1010.126343 443.944366,1010.961426 452.582275,1011.665344 
	C466.184906,1012.773926 479.811066,1013.592590 493.426361,1014.547241 
	C506.287476,1015.448914 519.147461,1016.366821 532.007385,1017.284790 
	C532.336670,1017.308350 532.659912,1017.416748 532.962036,1017.822021 
	C530.953308,1019.448608 528.469910,1020.345764 527.082397,1022.106506 
	C523.664551,1026.443726 520.296875,1030.941162 517.752563,1035.814453 
	C514.817078,1041.436890 510.873108,1046.940796 511.559509,1053.822998 
	C504.042450,1053.216797 496.981476,1052.738281 489.923370,1052.220215 
	C477.464905,1051.306152 465.008301,1050.366455 452.550690,1049.440430 
	C446.157867,1048.965088 439.759949,1048.550781 433.373047,1048.006470 
	C428.802704,1047.616821 424.224487,1047.208862 419.689392,1046.540283 
	C411.171631,1045.284668 402.684662,1043.820679 394.180939,1042.468628 
	C384.860931,1040.986694 375.462280,1039.888428 366.235718,1037.962646 
	C357.850891,1036.212524 349.683136,1033.445435 341.353363,1031.396362 
	C338.187744,1030.617554 336.074860,1031.704590 335.696167,1035.649414 
	C335.027527,1042.614746 333.789948,1049.524658 332.830414,1056.463135 
	C330.998871,1069.707031 328.962067,1082.928345 327.465302,1096.210327 
	C326.526062,1104.544800 325.989807,1112.974976 326.035980,1121.358032 
	C326.100555,1133.079712 326.748016,1144.804199 327.380951,1156.514893 
	C328.189301,1171.470825 329.181946,1186.417603 330.201660,1201.360962 
	C330.536072,1206.261108 330.926422,1211.187134 331.776917,1216.015747 
	C333.380493,1225.120117 335.358948,1234.157959 337.140472,1243.231445 
	C339.141479,1253.422974 340.497040,1263.786499 343.212921,1273.781738 
	C347.287201,1288.776245 351.674835,1303.748535 357.086060,1318.299927 
	C362.977325,1334.142456 369.796875,1349.676758 376.946808,1365.002563 
	C383.020966,1378.022339 389.950806,1390.658691 396.864624,1403.265747 
	C401.487000,1411.694336 406.530029,1419.914062 411.774750,1427.973633 
	C417.646240,1436.996460 423.777161,1445.865112 430.135315,1454.551880 
	C435.156189,1461.411621 440.692017,1467.894409 446.014038,1474.935791 
	C443.972748,1485.336914 442.036133,1495.373291 439.812592,1505.345947 
	C438.602966,1510.771240 436.905853,1516.087646 435.428558,1521.453247 
M1131.738281,1221.321655 
	C1133.271973,1220.461182 1134.712646,1219.303833 1136.354736,1218.789429 
	C1145.390015,1215.959351 1153.097656,1210.567383 1159.808716,1204.418213 
	C1174.175537,1191.254517 1185.770386,1176.297852 1190.627563,1156.455322 
	C1193.207520,1145.916138 1192.549438,1135.962402 1191.098267,1125.836060 
	C1189.683960,1115.965820 1186.410156,1106.395142 1180.139771,1098.481934 
	C1174.337646,1091.159912 1168.442383,1083.528931 1161.170532,1077.848755 
	C1151.573486,1070.352051 1140.751587,1064.095459 1128.027954,1063.223145 
	C1118.319824,1062.557617 1108.144653,1060.524048 1098.935181,1062.548096 
	C1082.084839,1066.251587 1065.739990,1072.337769 1049.290405,1077.752808 
	C1037.901245,1081.502075 1026.784912,1086.096802 1015.343872,1089.663086 
	C1011.711548,1090.795288 1010.843750,1092.440918 1011.069580,1095.583008 
	C1011.516968,1101.805420 1012.467529,1108.030151 1012.397339,1114.244629 
	C1012.119873,1138.788086 1011.528076,1163.328003 1011.049011,1187.869019 
	C1011.039246,1188.366333 1011.005554,1188.865356 1010.943604,1189.358643 
	C1009.581726,1200.198120 1008.225891,1211.038452 1006.843994,1221.875366 
	C1005.893860,1229.326660 1005.348999,1236.864502 1003.833923,1244.200806 
	C1001.411804,1255.928711 998.323181,1267.518433 995.557617,1279.176514 
	C995.361938,1280.001465 995.504272,1280.906616 995.489441,1281.774414 
	C996.355774,1281.701660 997.314453,1281.845337 998.073303,1281.521118 
	C1002.876099,1279.468994 1007.671143,1277.391113 1012.400085,1275.175171 
	C1021.666016,1270.833130 1030.829224,1266.268433 1040.140991,1262.028564 
	C1052.287354,1256.498047 1064.558838,1251.242920 1076.733521,1245.773193 
	C1084.272461,1242.386108 1091.692261,1238.733643 1099.235229,1235.355591 
	C1109.778442,1230.634033 1120.386475,1226.057129 1131.738281,1221.321655 
z"/>
<path fill="#060104" opacity="1.000000" stroke="none" 
	d="
M581.661621,1593.187744 
	C624.032532,1592.700806 666.402527,1592.004639 708.774780,1591.821655 
	C727.816345,1591.739502 746.864502,1592.611206 765.905334,1593.193970 
	C774.480713,1593.456299 783.043945,1594.100708 791.615295,1594.518433 
	C801.838135,1595.016846 812.068970,1595.366943 822.287048,1595.945312 
	C837.411926,1596.801514 852.534729,1597.715454 867.646851,1598.769287 
	C878.768372,1599.544922 889.893433,1600.379395 900.976440,1601.565796 
	C911.184692,1602.658813 921.335693,1604.281860 931.518677,1605.619995 
	C935.562134,1606.151367 939.627380,1606.514526 943.676392,1607.006470 
	C951.455627,1607.951782 959.250549,1608.796753 967.000916,1609.941040 
	C974.382080,1611.030884 981.698730,1612.553223 989.074280,1613.686768 
	C994.085083,1614.456909 999.239624,1614.470825 1004.168335,1615.556519 
	C1012.841980,1617.467163 1021.432617,1619.796387 1029.981934,1622.218628 
	C1037.761475,1624.422852 1045.589722,1626.592163 1053.129150,1629.475708 
	C1065.528320,1634.217773 1075.257935,1641.991211 1079.370972,1655.321045 
	C1081.870117,1663.421021 1075.455200,1677.123291 1067.149170,1682.661499 
	C1052.676270,1692.311401 1036.598145,1697.508057 1019.739136,1700.827393 
	C1006.045654,1703.523438 992.436157,1706.708008 978.673035,1708.967285 
	C968.988647,1710.556885 959.089966,1710.793579 949.321899,1711.933716 
	C939.132263,1713.123169 928.994995,1714.755249 918.814209,1716.028687 
	C913.291443,1716.719482 907.732544,1717.165161 902.177979,1717.549683 
	C887.893677,1718.538696 873.596863,1719.351685 859.316345,1720.389771 
	C848.515076,1721.175049 837.742188,1722.369873 826.936340,1723.068359 
	C816.067993,1723.770996 805.174316,1724.078857 794.292236,1724.571777 
	C784.884766,1724.997925 775.480774,1725.746582 766.070679,1725.827515 
	C699.704468,1726.398682 633.337524,1726.945679 566.969666,1727.231445 
	C551.091736,1727.299805 535.207092,1726.417603 519.330078,1725.846802 
	C511.422333,1725.562500 503.525879,1724.973389 495.622406,1724.558716 
	C486.071655,1724.057495 476.513123,1723.687744 466.968353,1723.093628 
	C453.341492,1722.245728 439.716461,1721.343262 426.105255,1720.277222 
	C416.638000,1719.535645 407.168060,1718.697144 397.748138,1717.513550 
	C384.499603,1715.848755 371.304565,1713.762695 358.069366,1711.985229 
	C353.191986,1711.330078 348.238434,1711.231201 343.367493,1710.540894 
	C334.833252,1709.331421 326.334991,1707.867188 317.823395,1706.498779 
	C308.842255,1705.054932 299.776855,1703.990601 290.906982,1702.038940 
	C281.586334,1699.988403 272.159973,1697.827148 263.323090,1694.338379 
	C254.767517,1690.960571 246.692261,1686.179810 238.788452,1681.384888 
	C229.022156,1675.459961 224.832352,1662.596313 228.564087,1652.044922 
	C231.620682,1643.402466 237.776337,1637.610107 245.679230,1633.377686 
	C255.183990,1628.287476 265.083588,1624.485962 275.706696,1622.242310 
	C285.976288,1620.073364 295.964020,1616.578369 306.225769,1614.360962 
	C313.694489,1612.747192 321.420837,1612.355591 329.008087,1611.252319 
	C337.065491,1610.080811 345.085754,1608.655396 353.138824,1607.451782 
	C357.647156,1606.777832 362.182678,1606.267700 366.717468,1605.793823 
	C372.103333,1605.231079 377.504364,1604.815674 382.893829,1604.285400 
	C396.588959,1602.938232 410.272156,1601.458862 423.978424,1600.238525 
	C431.850616,1599.537354 439.758545,1599.237427 448.472046,1598.859985 
	C473.906921,1604.424438 498.489838,1610.028320 523.150146,1615.268066 
	C531.496033,1617.041260 540.135376,1619.390015 548.469116,1618.846436 
	C564.697693,1617.787842 575.265930,1607.799438 581.661621,1593.187744 
M415.486267,1639.924194 
	C403.912170,1641.085327 392.335449,1642.221069 380.764832,1643.416016 
	C371.817352,1644.340088 362.834808,1645.052246 353.945587,1646.379272 
	C343.829834,1647.889526 333.801605,1649.984741 323.733185,1651.813599 
	C311.510712,1654.033691 299.285919,1656.240967 287.062134,1658.453857 
	C287.041412,1658.980957 287.020691,1659.508179 286.999969,1660.035278 
	C288.267731,1660.574707 289.489502,1661.307495 290.810791,1661.621948 
	C298.695282,1663.498779 306.576508,1665.404785 314.509857,1667.055908 
	C322.158569,1668.647705 329.837463,1670.151489 337.559967,1671.317139 
	C348.182587,1672.920654 358.841980,1674.316040 369.516022,1675.534180 
	C383.186371,1677.093994 396.877197,1678.493896 410.577484,1679.766235 
	C422.346344,1680.859375 434.133331,1681.786865 445.925903,1682.587524 
	C461.052185,1683.614502 476.185150,1684.584717 491.328094,1685.312500 
	C505.370453,1685.987671 519.427368,1686.400513 533.482056,1686.769287 
	C554.370667,1687.317627 575.261169,1687.849854 596.154297,1688.150635 
	C611.147583,1688.366577 626.148071,1688.068604 641.142090,1688.257812 
	C646.698120,1688.327881 652.248230,1689.546875 657.795166,1689.502686 
	C665.184753,1689.443848 672.562561,1688.422729 679.956055,1688.237305 
	C703.339233,1687.650757 726.729248,1687.342285 750.112488,1686.758057 
	C760.340393,1686.502686 770.555603,1685.775757 780.781067,1685.376831 
	C794.176575,1684.854004 807.579468,1684.514404 820.973267,1683.954956 
	C827.382263,1683.687378 833.773376,1683.015381 840.180054,1682.664062 
	C858.287109,1681.671265 876.396606,1680.720703 894.508484,1679.822388 
	C898.472778,1679.625610 902.480103,1680.002563 906.416565,1679.606934 
	C912.898193,1678.955444 919.334229,1677.859375 925.797058,1677.008057 
	C930.020996,1676.451416 934.275635,1676.109863 938.486023,1675.471191 
	C946.996765,1674.180542 955.473022,1672.659912 963.989380,1671.410400 
	C971.265686,1670.342773 978.628784,1669.805542 985.861816,1668.518555 
	C994.633301,1666.958008 1003.329651,1664.947021 1012.011780,1662.929565 
	C1014.474792,1662.357300 1016.774353,1661.081787 1019.148865,1660.128784 
	C1019.059875,1659.681641 1018.970825,1659.234497 1018.881836,1658.787354 
	C1012.218079,1657.399048 1005.570923,1655.923828 998.885559,1654.648560 
	C993.138733,1653.552246 987.328369,1652.788452 981.581543,1651.691772 
	C972.491821,1649.957153 963.489197,1647.673462 954.345032,1646.339844 
	C942.093811,1644.552979 929.749573,1643.386719 917.432312,1642.075439 
	C907.660950,1641.035156 897.877808,1640.086548 888.085938,1639.262085 
	C875.807800,1638.228271 863.519287,1637.309692 851.228027,1636.443726 
	C843.336060,1635.887573 835.434570,1635.441284 827.531250,1635.079102 
	C816.139587,1634.557007 804.741760,1634.169800 793.347656,1633.699951 
	C781.968628,1633.230835 770.592407,1632.692139 759.212280,1632.253906 
	C745.992188,1631.744873 732.766724,1630.856079 719.547974,1630.928955 
	C674.998291,1631.174438 630.449463,1631.689819 585.902588,1632.276001 
	C566.187134,1632.535400 546.471436,1633.048218 526.766418,1633.745850 
	C507.127319,1634.441040 487.500763,1635.496582 467.870209,1636.424927 
	C458.708710,1636.858154 449.548004,1637.317993 440.391907,1637.851440 
	C432.337677,1638.320679 424.290436,1638.909302 415.486267,1639.924194 
z"/>
<path fill="#11020E" opacity="1.000000" stroke="none" 
	d="
M624.438293,869.564453 
	C625.602661,868.113831 626.352661,866.437683 627.580688,865.939148 
	C636.739746,862.221252 638.121765,852.883118 642.497925,845.725281 
	C648.913635,835.231262 646.573181,823.470032 645.382385,812.634277 
	C644.647949,805.951172 642.388245,797.924500 635.467834,792.860657 
	C630.286194,789.069092 625.937134,784.037354 621.627441,779.192993 
	C618.806335,776.021912 616.698364,772.212341 614.309448,768.662781 
	C613.291565,767.150391 612.733826,765.019226 611.349304,764.112549 
	C602.124512,758.071594 600.046631,747.508057 595.454468,738.687439 
	C593.480713,734.896179 594.571899,729.570312 593.971069,724.980896 
	C593.595032,722.108948 592.640503,719.314758 591.982971,716.477051 
	C591.314209,713.591003 590.157410,710.698608 590.134094,707.801636 
	C589.972046,687.647461 589.879700,667.488708 590.201172,647.338379 
	C590.261475,643.563232 591.354675,639.072510 593.627869,636.242981 
	C596.742065,632.366638 597.692993,628.509338 598.524353,623.819885 
	C599.422241,618.755798 601.945679,613.719055 604.769897,609.318542 
	C609.030701,602.679688 614.169006,596.604065 618.931641,590.287048 
	C622.097717,586.087646 625.480713,582.030518 628.365356,577.645691 
	C631.884888,572.296021 638.040649,569.529053 644.837463,570.826294 
	C650.985901,571.999756 655.805786,576.985413 656.681335,583.466675 
	C657.967468,592.987000 655.996216,600.919556 648.764404,608.423035 
	C641.314941,616.152283 635.927368,625.877014 629.734070,634.795654 
	C629.131653,635.663208 628.952942,637.015564 629.011292,638.119995 
	C629.349548,644.515259 627.255981,649.793213 622.583557,654.261169 
	C621.481079,655.315430 621.057983,657.517456 621.040527,659.198914 
	C620.914368,671.357544 620.950195,683.518250 621.002258,695.677917 
	C621.008484,697.135010 621.338379,698.608765 621.659363,700.043213 
	C622.727844,704.818848 624.767212,709.577881 624.779480,714.347473 
	C624.804626,724.163635 628.223328,731.682312 635.556641,738.295349 
	C639.184082,741.566406 640.843140,746.979736 643.552124,751.324402 
	C645.283325,754.100830 647.022888,756.963806 649.253540,759.319397 
	C655.092773,765.485596 661.521667,771.119141 667.068848,777.524963 
	C669.748657,780.619629 671.142334,784.900269 672.829590,788.769836 
	C680.696045,806.810974 675.444702,825.858459 676.992676,844.389404 
	C677.500977,850.473877 675.041199,855.553040 672.763855,861.002686 
	C667.795593,872.891602 659.904358,882.254089 650.214905,890.349548 
	C642.495300,896.799377 634.189514,897.630859 627.947510,892.720398 
	C621.792786,887.878479 620.287537,878.593933 624.438293,869.564453 
z"/>
<path fill="#11020E" opacity="1.000000" stroke="none" 
	d="
M730.888123,753.992065 
	C724.186157,738.256897 726.163391,722.037659 726.050110,706.042358 
	C725.947510,691.551147 726.470886,677.040283 725.867310,662.573486 
	C725.488342,653.492310 727.847961,645.560791 732.218872,637.925476 
	C732.795776,636.917664 733.861511,635.851501 733.800781,634.867920 
	C732.972778,621.447693 742.932678,613.492065 749.350830,603.741089 
	C750.163391,602.506653 750.425903,600.869446 751.350525,599.757507 
	C753.641174,597.003052 755.959290,594.203918 758.655029,591.872009 
	C761.689270,589.247253 765.462646,587.446289 768.363281,584.703918 
	C775.948425,577.532532 785.466187,576.477112 792.039307,582.492737 
	C798.519165,588.422974 798.940491,601.045288 792.526428,607.996582 
	C787.029724,613.953735 780.178101,618.877075 775.641479,625.443054 
	C771.072144,632.056519 764.512634,637.789124 764.412781,647.327209 
	C764.364929,651.895813 760.655640,656.388855 758.793579,660.992432 
	C757.949463,663.079224 757.066833,665.348328 757.050781,667.540955 
	C756.913818,686.196228 756.106323,704.911621 757.364990,723.482544 
	C757.930664,731.828430 762.176270,740.144470 765.760437,748.014832 
	C771.194519,759.947266 778.353333,771.145691 783.147095,783.299744 
	C786.270630,791.219177 789.555542,799.362671 789.182007,808.633179 
	C788.458435,826.594116 788.869141,844.605408 789.015930,862.594177 
	C789.066833,868.831665 787.132446,873.938538 782.542480,878.180237 
	C779.734375,880.775208 777.284302,883.754517 774.520752,886.401733 
	C767.937134,892.708435 759.067383,893.725647 752.658264,889.034424 
	C746.548950,884.562561 745.188416,876.789734 749.441101,868.343079 
	C751.506042,864.241882 754.280029,860.502563 756.597839,856.520752 
	C757.304993,855.305786 757.953857,853.832153 757.964661,852.471680 
	C758.066223,839.646301 759.039307,826.708557 757.651611,814.034241 
	C756.784912,806.118225 752.287109,798.601807 749.435486,790.899902 
	C748.294800,787.819153 747.201050,784.720947 746.081299,781.632446 
	C745.749573,780.717346 745.518127,779.741882 745.043335,778.906250 
	C740.387756,770.713379 735.690369,762.544312 730.888123,753.992065 
z"/>
<path fill="#247E0A" opacity="1.000000" stroke="none" 
	d="
M581.572632,1592.763184 
	C575.265930,1607.799438 564.697693,1617.787842 548.469116,1618.846436 
	C540.135376,1619.390015 531.496033,1617.041260 523.150146,1615.268066 
	C498.489838,1610.028320 473.906921,1604.424438 448.976135,1598.877930 
	C447.990295,1597.900269 447.492035,1596.771240 446.628540,1596.149658 
	C430.960968,1584.871460 425.359253,1570.157104 429.511566,1551.550049 
	C431.701813,1541.735229 433.597839,1531.854614 435.527649,1521.728516 
	C436.905853,1516.087646 438.602966,1510.771240 439.812592,1505.345947 
	C442.036133,1495.373291 443.972748,1485.336914 446.345581,1474.685059 
	C447.120087,1472.273438 447.628571,1470.515259 448.028351,1468.732666 
	C457.600372,1426.054321 467.073090,1383.353516 476.757812,1340.700684 
	C482.130402,1317.039062 502.873169,1304.269409 526.574463,1309.614746 
	C539.717529,1312.578857 552.885254,1315.433594 566.025513,1318.636475 
	C565.447083,1319.689819 564.884888,1320.444336 563.881226,1321.152100 
	C550.761719,1318.300903 538.094482,1315.446167 525.403137,1312.702515 
	C503.983826,1308.072021 484.558899,1320.481567 479.806183,1341.731689 
	C464.291016,1411.102661 448.775665,1480.473511 433.236420,1549.839111 
	C427.811554,1574.055176 439.882111,1593.309326 464.120544,1598.781616 
	C487.342010,1604.024414 510.575928,1609.214355 533.833557,1614.293701 
	C554.851746,1618.884033 574.389832,1606.381226 579.108398,1585.355469 
	C594.047302,1518.787964 609.005859,1452.224609 623.741638,1385.612061 
	C625.521179,1377.567749 627.210999,1369.170044 626.799988,1361.044556 
	C625.948059,1344.200439 610.044739,1329.095459 594.356445,1328.410156 
	C595.169983,1327.128296 595.940857,1326.102539 597.133301,1325.218750 
	C601.177002,1326.568481 604.865967,1327.607788 608.409729,1329.013184 
	C623.878601,1335.148071 634.454407,1353.673706 630.942688,1369.966919 
	C622.358154,1409.796143 613.279846,1449.518677 604.483215,1489.302612 
	C602.191528,1499.667114 600.204102,1510.098755 598.076904,1520.499634 
	C595.376038,1531.678711 592.665649,1542.855591 589.985046,1554.039551 
	C589.602356,1555.635986 589.363464,1557.267090 589.043457,1559.261719 
	C586.513855,1570.540405 583.998779,1581.439575 581.572632,1592.763184 
z"/>
<path fill="#FF8D00" opacity="0.000000" stroke="none" 
	d="
M598.539795,1520.491455 
	C600.204102,1510.098755 602.191528,1499.667114 604.483215,1489.302612 
	C613.279846,1449.518677 622.358154,1409.796143 630.942688,1369.966919 
	C634.454407,1353.673706 623.878601,1335.148071 608.409729,1329.013184 
	C604.865967,1327.607788 601.177002,1326.568481 597.275085,1324.820312 
	C598.466919,1321.315308 600.137024,1318.430176 601.365234,1315.367676 
	C603.375977,1310.354370 606.441650,1305.290405 606.690002,1300.133545 
	C607.409546,1285.192017 607.058472,1270.192261 606.854919,1255.218994 
	C606.815857,1252.343140 606.096130,1249.177124 604.723083,1246.675903 
	C600.763916,1239.463135 596.259277,1232.551758 592.077271,1225.458252 
	C590.485413,1222.758057 589.299011,1219.820312 587.736572,1217.100830 
	C583.398865,1209.550659 578.125366,1202.412109 574.755981,1194.460815 
	C569.556702,1182.191040 560.669617,1171.827271 556.963806,1158.867676 
	C556.833130,1158.410645 556.498779,1157.953979 556.139771,1157.629395 
	C552.553284,1154.386841 552.057312,1149.425415 549.816467,1145.776733 
	C545.423035,1138.623047 542.628113,1131.304810 541.197632,1123.203491 
	C540.808411,1120.999268 539.103699,1118.921143 539.083191,1116.774780 
	C538.908508,1098.472290 538.893127,1080.166260 539.116699,1061.864746 
	C539.140015,1059.952515 541.018860,1058.062866 542.036804,1056.162720 
	C551.197632,1056.232788 560.363342,1056.144653 569.517578,1056.428833 
	C575.581116,1056.616821 581.627014,1057.740845 587.682739,1057.757080 
	C632.137085,1057.876099 676.592224,1057.919922 721.046265,1057.757080 
	C733.276917,1057.712280 745.507141,1056.941772 757.732971,1056.400146 
	C765.958069,1056.035767 774.177979,1055.532837 782.395203,1055.012939 
	C796.683472,1054.109131 810.975525,1053.247070 825.251099,1052.169067 
	C835.055115,1051.428589 844.843567,1050.444702 854.621216,1049.403198 
	C866.974182,1048.087158 879.336060,1046.800049 891.644104,1045.131714 
	C903.253662,1043.558105 914.866821,1041.850342 926.351685,1039.564697 
	C936.990173,1037.447510 947.503845,1034.645630 957.979431,1031.802368 
	C961.143433,1030.943481 962.788635,1031.522949 963.477051,1034.594971 
	C964.929504,1041.076538 966.503357,1047.540161 967.662048,1054.076050 
	C969.253540,1063.054199 970.869019,1072.055054 971.802490,1081.115356 
	C972.731323,1090.130859 972.974792,1099.227539 973.261169,1108.296753 
	C973.846802,1126.845581 974.860718,1145.410522 974.525146,1163.947754 
	C974.313416,1175.646606 971.967712,1187.306030 970.601074,1198.985596 
	C970.086365,1203.384766 969.742126,1207.806274 969.127686,1212.190674 
	C968.133118,1219.287231 967.157593,1226.394653 965.846619,1233.436646 
	C964.332581,1241.568970 962.614075,1249.670898 960.709900,1257.721069 
	C958.434021,1267.342773 956.024475,1276.939209 953.381348,1286.465698 
	C950.870728,1295.514526 948.236389,1304.545532 945.186401,1313.422852 
	C942.566589,1321.048096 939.562317,1328.571777 936.238037,1335.918579 
	C927.752197,1354.672607 919.524231,1373.574585 910.161743,1391.890015 
	C903.574646,1404.776123 895.601135,1416.996338 887.687012,1429.149414 
	C879.599915,1441.567993 871.043945,1453.698975 862.274048,1465.648071 
	C857.428345,1472.250366 851.858032,1478.342773 846.375244,1484.450439 
	C836.454529,1495.502075 826.334167,1506.374390 816.341980,1517.362427 
	C813.367798,1520.633057 809.870178,1522.040405 805.375732,1521.916870 
	C796.549500,1521.674438 787.711304,1521.907959 778.879028,1521.834717 
	C724.161926,1521.381348 669.445068,1520.892090 614.727966,1520.432251 
	C609.486755,1520.388306 604.244446,1520.463501 598.539795,1520.491455 
z"/>
<path fill="#FE8D00" opacity="0.000000" stroke="none" 
	d="
M566.041748,1318.337524 
	C552.885254,1315.433594 539.717529,1312.578857 526.574463,1309.614746 
	C502.873169,1304.269409 482.130402,1317.039062 476.757812,1340.700684 
	C467.073090,1383.353516 457.600372,1426.054321 448.028351,1468.732666 
	C447.628571,1470.515259 447.120087,1472.273438 446.330688,1474.293701 
	C440.692017,1467.894409 435.156189,1461.411621 430.135315,1454.551880 
	C423.777161,1445.865112 417.646240,1436.996460 411.774750,1427.973633 
	C406.530029,1419.914062 401.487000,1411.694336 396.864624,1403.265747 
	C389.950806,1390.658691 383.020966,1378.022339 376.946808,1365.002563 
	C369.796875,1349.676758 362.977325,1334.142456 357.086060,1318.299927 
	C351.674835,1303.748535 347.287201,1288.776245 343.212921,1273.781738 
	C340.497040,1263.786499 339.141479,1253.422974 337.140472,1243.231445 
	C335.358948,1234.157959 333.380493,1225.120117 331.776917,1216.015747 
	C330.926422,1211.187134 330.536072,1206.261108 330.201660,1201.360962 
	C329.181946,1186.417603 328.189301,1171.470825 327.380951,1156.514893 
	C326.748016,1144.804199 326.100555,1133.079712 326.035980,1121.358032 
	C325.989807,1112.974976 326.526062,1104.544800 327.465302,1096.210327 
	C328.962067,1082.928345 330.998871,1069.707031 332.830414,1056.463135 
	C333.789948,1049.524658 335.027527,1042.614746 335.696167,1035.649414 
	C336.074860,1031.704590 338.187744,1030.617554 341.353363,1031.396362 
	C349.683136,1033.445435 357.850891,1036.212524 366.235718,1037.962646 
	C375.462280,1039.888428 384.860931,1040.986694 394.180939,1042.468628 
	C402.684662,1043.820679 411.171631,1045.284668 419.689392,1046.540283 
	C424.224487,1047.208862 428.802704,1047.616821 433.373047,1048.006470 
	C439.759949,1048.550781 446.157867,1048.965088 452.550690,1049.440430 
	C465.008301,1050.366455 477.464905,1051.306152 489.923370,1052.220215 
	C496.981476,1052.738281 504.042450,1053.216797 511.560730,1054.296387 
	C512.022095,1077.013428 511.525787,1099.164429 512.276245,1121.272949 
	C512.571411,1129.970215 515.633667,1138.576782 517.497437,1147.211548 
	C517.664734,1147.986450 518.357544,1148.632568 518.687561,1149.390137 
	C523.349548,1160.092896 530.640869,1169.600342 532.953979,1181.406982 
	C533.391907,1183.641846 535.098999,1186.175049 536.978638,1187.472046 
	C541.574402,1190.643555 544.202087,1194.558105 544.563904,1200.172729 
	C544.664185,1201.729858 545.698059,1203.256470 546.424011,1204.738037 
	C548.532959,1209.042847 550.432800,1213.481079 552.903748,1217.571411 
	C558.509338,1226.850830 563.510071,1236.721924 570.487488,1244.870483 
	C575.545654,1250.777466 578.808044,1257.853027 579.375366,1264.120728 
	C580.386230,1275.286987 582.926025,1287.249634 576.613586,1298.184326 
	C572.824097,1304.748779 569.548401,1311.609741 566.041748,1318.337524 
z"/>
<path fill="#FE8C00" opacity="0.000000" stroke="none" 
	d="
M1131.352539,1221.370117 
	C1120.386475,1226.057129 1109.778442,1230.634033 1099.235229,1235.355591 
	C1091.692261,1238.733643 1084.272461,1242.386108 1076.733521,1245.773193 
	C1064.558838,1251.242920 1052.287354,1256.498047 1040.140991,1262.028564 
	C1030.829224,1266.268433 1021.666016,1270.833130 1012.400085,1275.175171 
	C1007.671143,1277.391113 1002.876099,1279.468994 998.073303,1281.521118 
	C997.314453,1281.845337 996.355774,1281.701660 995.489441,1281.774414 
	C995.504272,1280.906616 995.361938,1280.001465 995.557617,1279.176514 
	C998.323181,1267.518433 1001.411804,1255.928711 1003.833923,1244.200806 
	C1005.348999,1236.864502 1005.893860,1229.326660 1006.843994,1221.875366 
	C1008.225891,1211.038452 1009.581726,1200.198120 1010.943604,1189.358643 
	C1011.005554,1188.865356 1011.039246,1188.366333 1011.049011,1187.869019 
	C1011.528076,1163.328003 1012.119873,1138.788086 1012.397339,1114.244629 
	C1012.467529,1108.030151 1011.516968,1101.805420 1011.069580,1095.583008 
	C1010.843750,1092.440918 1011.711548,1090.795288 1015.343872,1089.663086 
	C1026.784912,1086.096802 1037.901245,1081.502075 1049.290405,1077.752808 
	C1065.739990,1072.337769 1082.084839,1066.251587 1098.935181,1062.548096 
	C1108.144653,1060.524048 1118.319824,1062.557617 1128.027954,1063.223145 
	C1140.751587,1064.095459 1151.573486,1070.352051 1161.170532,1077.848755 
	C1168.442383,1083.528931 1174.337646,1091.159912 1180.139771,1098.481934 
	C1186.410156,1106.395142 1189.683960,1115.965820 1191.098267,1125.836060 
	C1192.549438,1135.962402 1193.207520,1145.916138 1190.627563,1156.455322 
	C1185.770386,1176.297852 1174.175537,1191.254517 1159.808716,1204.418213 
	C1153.097656,1210.567383 1145.390015,1215.959351 1136.354736,1218.789429 
	C1134.712646,1219.303833 1133.271973,1220.461182 1131.352539,1221.370117 
z"/>
<path fill="#FC8B00" opacity="0.000000" stroke="none" 
	d="
M532.985962,1017.485596 
	C532.659912,1017.416748 532.336670,1017.308350 532.007385,1017.284790 
	C519.147461,1016.366821 506.287476,1015.448914 493.426361,1014.547241 
	C479.811066,1013.592590 466.184906,1012.773926 452.582275,1011.665344 
	C443.944366,1010.961426 435.297089,1010.126343 426.731750,1008.834534 
	C413.230347,1006.798340 399.796906,1004.313293 386.329529,1002.048950 
	C380.175293,1001.014282 374.008789,1000.052612 367.847870,999.057861 
	C367.837311,998.387085 367.826752,997.716370 367.816193,997.045593 
	C369.998871,996.679382 372.186798,996.341736 374.363251,995.941528 
	C381.229401,994.679260 388.077209,993.310974 394.958282,992.137451 
	C403.614227,990.661133 412.288147,989.284607 420.970154,987.969543 
	C425.006836,987.358093 429.069977,986.843140 433.140259,986.548157 
	C441.034912,985.975891 449.012573,986.093689 456.830261,985.015259 
	C470.242004,983.165161 483.640686,982.273499 497.187866,982.108459 
	C510.316345,981.948547 523.418823,980.250549 536.550171,979.558838 
	C549.609131,978.870789 562.686707,978.458984 575.761597,978.166321 
	C600.655579,977.609131 625.551819,977.084167 650.450073,976.809998 
	C670.280151,976.591553 690.116333,976.600830 709.946228,976.825317 
	C722.677490,976.969421 735.402771,977.670837 748.129639,978.152527 
	C759.534485,978.584229 770.946350,978.905151 782.339478,979.551208 
	C795.971252,980.324097 809.594177,981.290710 823.205933,982.363403 
	C832.835388,983.122192 842.456848,984.050964 852.050903,985.169617 
	C862.258606,986.359741 872.422852,987.917908 882.619141,989.212341 
	C890.884766,990.261536 899.201294,990.948242 907.437439,992.181396 
	C915.631836,993.408325 923.756348,995.104858 931.900696,996.652344 
	C932.233337,996.715576 932.455750,997.359619 933.325256,998.545776 
	C928.065002,999.740906 923.317383,1000.991089 918.502869,1001.878357 
	C907.954834,1003.822327 897.385559,1005.659851 886.798706,1007.379700 
	C882.431824,1008.089172 878.005005,1008.469299 873.592468,1008.848145 
	C867.203186,1009.396667 860.790283,1009.685303 854.408691,1010.303772 
	C840.894958,1011.613586 827.395447,1013.069702 813.888367,1014.448608 
	C812.897034,1014.549805 811.891357,1014.506104 810.892822,1014.542419 
	C798.489563,1014.993469 786.086670,1015.456970 773.682983,1015.896606 
	C760.450012,1016.365540 747.218201,1016.884399 733.982239,1017.252625 
	C714.096985,1017.805908 694.207275,1018.203125 674.321838,1018.750305 
	C660.260864,1019.137207 646.204163,1020.002563 632.144714,1020.023193 
	C619.872681,1020.041138 607.599365,1019.177246 595.005554,1018.481567 
	C597.544800,1014.625793 601.612122,1015.070984 605.593262,1014.829102 
	C612.901611,1014.385010 617.944031,1009.377747 618.315369,1002.582642 
	C618.709656,995.366211 614.633423,989.570251 607.721680,988.446716 
	C594.422363,986.284912 581.730408,988.979797 569.849854,994.869263 
	C562.665344,998.430725 555.957397,1002.978760 549.147827,1007.262207 
	C544.573364,1010.139709 540.212891,1013.356018 535.714294,1016.357117 
	C534.911255,1016.892761 533.900696,1017.117371 532.985962,1017.485596 
z"/>
<path fill="#11020E" opacity="1.000000" stroke="none" 
	d="
M532.962036,1017.822083 
	C533.900696,1017.117371 534.911255,1016.892761 535.714294,1016.357117 
	C540.212891,1013.356018 544.573364,1010.139709 549.147827,1007.262207 
	C555.957397,1002.978760 562.665344,998.430725 569.849854,994.869263 
	C581.730408,988.979797 594.422363,986.284912 607.721680,988.446716 
	C614.633423,989.570251 618.709656,995.366211 618.315369,1002.582642 
	C617.944031,1009.377747 612.901611,1014.385010 605.593262,1014.829102 
	C601.612122,1015.070984 597.544800,1014.625793 594.570923,1018.557129 
	C586.383057,1018.593018 580.100708,1022.202820 573.999329,1027.212524 
	C569.996643,1030.499023 564.375427,1031.775513 560.232910,1034.939087 
	C552.919250,1040.524292 544.050598,1044.987061 542.034973,1055.770996 
	C541.018860,1058.062866 539.140015,1059.952515 539.116699,1061.864746 
	C538.893127,1080.166260 538.908508,1098.472290 539.083191,1116.774780 
	C539.103699,1118.921143 540.808411,1120.999268 541.197632,1123.203491 
	C542.628113,1131.304810 545.423035,1138.623047 549.816467,1145.776733 
	C552.057312,1149.425415 552.553284,1154.386841 556.139771,1157.629395 
	C556.498779,1157.953979 556.833130,1158.410645 556.963806,1158.867676 
	C560.669617,1171.827271 569.556702,1182.191040 574.755981,1194.460815 
	C578.125366,1202.412109 583.398865,1209.550659 587.736572,1217.100830 
	C589.299011,1219.820312 590.485413,1222.758057 592.077271,1225.458252 
	C596.259277,1232.551758 600.763916,1239.463135 604.723083,1246.675903 
	C606.096130,1249.177124 606.815857,1252.343140 606.854919,1255.218994 
	C607.058472,1270.192261 607.409546,1285.192017 606.690002,1300.133545 
	C606.441650,1305.290405 603.375977,1310.354370 601.365234,1315.367676 
	C600.137024,1318.430176 598.466919,1321.315308 596.853516,1324.678467 
	C595.940857,1326.102539 595.169983,1327.128296 594.265503,1328.803345 
	C591.105469,1332.876465 588.587219,1337.023071 584.951050,1339.580078 
	C576.297241,1345.665894 565.347778,1340.211304 564.280457,1329.651611 
	C563.998657,1326.863892 564.292969,1324.017944 564.322693,1321.198730 
	C564.884888,1320.444336 565.447083,1319.689819 566.025513,1318.636475 
	C569.548401,1311.609741 572.824097,1304.748779 576.613586,1298.184326 
	C582.926025,1287.249634 580.386230,1275.286987 579.375366,1264.120728 
	C578.808044,1257.853027 575.545654,1250.777466 570.487488,1244.870483 
	C563.510071,1236.721924 558.509338,1226.850830 552.903748,1217.571411 
	C550.432800,1213.481079 548.532959,1209.042847 546.424011,1204.738037 
	C545.698059,1203.256470 544.664185,1201.729858 544.563904,1200.172729 
	C544.202087,1194.558105 541.574402,1190.643555 536.978638,1187.472046 
	C535.098999,1186.175049 533.391907,1183.641846 532.953979,1181.406982 
	C530.640869,1169.600342 523.349548,1160.092896 518.687561,1149.390137 
	C518.357544,1148.632568 517.664734,1147.986450 517.497437,1147.211548 
	C515.633667,1138.576782 512.571411,1129.970215 512.276245,1121.272949 
	C511.525787,1099.164429 512.022095,1077.013428 512.018127,1054.406128 
	C510.873108,1046.940796 514.817078,1041.436890 517.752563,1035.814453 
	C520.296875,1030.941162 523.664551,1026.443726 527.082397,1022.106506 
	C528.469910,1020.345764 530.953308,1019.448608 532.962036,1017.822083 
z"/>
<path fill="#FD8C00" opacity="0.000000" stroke="none" 
	d="
M415.863190,1639.684814 
	C424.290436,1638.909302 432.337677,1638.320679 440.391907,1637.851440 
	C449.548004,1637.317993 458.708710,1636.858154 467.870209,1636.424927 
	C487.500763,1635.496582 507.127319,1634.441040 526.766418,1633.745850 
	C546.471436,1633.048218 566.187134,1632.535400 585.902588,1632.276001 
	C630.449463,1631.689819 674.998291,1631.174438 719.547974,1630.928955 
	C732.766724,1630.856079 745.992188,1631.744873 759.212280,1632.253906 
	C770.592407,1632.692139 781.968628,1633.230835 793.347656,1633.699951 
	C804.741760,1634.169800 816.139587,1634.557007 827.531250,1635.079102 
	C835.434570,1635.441284 843.336060,1635.887573 851.228027,1636.443726 
	C863.519287,1637.309692 875.807800,1638.228271 888.085938,1639.262085 
	C897.877808,1640.086548 907.660950,1641.035156 917.432312,1642.075439 
	C929.749573,1643.386719 942.093811,1644.552979 954.345032,1646.339844 
	C963.489197,1647.673462 972.491821,1649.957153 981.581543,1651.691772 
	C987.328369,1652.788452 993.138733,1653.552246 998.885559,1654.648560 
	C1005.570923,1655.923828 1012.218079,1657.399048 1018.881836,1658.787354 
	C1018.970825,1659.234497 1019.059875,1659.681641 1019.148865,1660.128784 
	C1016.774353,1661.081787 1014.474792,1662.357300 1012.011780,1662.929565 
	C1003.329651,1664.947021 994.633301,1666.958008 985.861816,1668.518555 
	C978.628784,1669.805542 971.265686,1670.342773 963.989380,1671.410400 
	C955.473022,1672.659912 946.996765,1674.180542 938.486023,1675.471191 
	C934.275635,1676.109863 930.020996,1676.451416 925.797058,1677.008057 
	C919.334229,1677.859375 912.898193,1678.955444 906.416565,1679.606934 
	C902.480103,1680.002563 898.472778,1679.625610 894.508484,1679.822388 
	C876.396606,1680.720703 858.287109,1681.671265 840.180054,1682.664062 
	C833.773376,1683.015381 827.382263,1683.687378 820.973267,1683.954956 
	C807.579468,1684.514404 794.176575,1684.854004 780.781067,1685.376831 
	C770.555603,1685.775757 760.340393,1686.502686 750.112488,1686.758057 
	C726.729248,1687.342285 703.339233,1687.650757 679.956055,1688.237305 
	C672.562561,1688.422729 665.184753,1689.443848 657.795166,1689.502686 
	C652.248230,1689.546875 646.698120,1688.327881 641.142090,1688.257812 
	C626.148071,1688.068604 611.147583,1688.366577 596.154297,1688.150635 
	C575.261169,1687.849854 554.370667,1687.317627 533.482056,1686.769287 
	C519.427368,1686.400513 505.370453,1685.987671 491.328094,1685.312500 
	C476.185150,1684.584717 461.052185,1683.614502 445.925903,1682.587524 
	C434.133331,1681.786865 422.346344,1680.859375 410.577484,1679.766235 
	C396.877197,1678.493896 383.186371,1677.093994 369.516022,1675.534180 
	C358.841980,1674.316040 348.182587,1672.920654 337.559967,1671.317139 
	C329.837463,1670.151489 322.158569,1668.647705 314.509857,1667.055908 
	C306.576508,1665.404785 298.695282,1663.498779 290.810791,1661.621948 
	C289.489502,1661.307495 288.267731,1660.574707 286.999969,1660.035278 
	C287.020691,1659.508179 287.041412,1658.980957 287.062134,1658.453857 
	C299.285919,1656.240967 311.510712,1654.033691 323.733185,1651.813599 
	C333.801605,1649.984741 343.829834,1647.889526 353.945587,1646.379272 
	C362.834808,1645.052246 371.817352,1644.340088 380.764832,1643.416016 
	C392.335449,1642.221069 403.912170,1641.085327 415.863190,1639.684814 
z"/>
<path fill="#F2FED6" opacity="1.000000" stroke="none" 
	d="
M563.881226,1321.152100 
	C564.292969,1324.017944 563.998657,1326.863892 564.280457,1329.651611 
	C565.347778,1340.211304 576.297241,1345.665894 584.951050,1339.580078 
	C588.587219,1337.023071 591.105469,1332.876465 594.222778,1329.059326 
	C610.044739,1329.095459 625.948059,1344.200439 626.799988,1361.044556 
	C627.210999,1369.170044 625.521179,1377.567749 623.741638,1385.612061 
	C609.005859,1452.224609 594.047302,1518.787964 579.108398,1585.355469 
	C574.389832,1606.381226 554.851746,1618.884033 533.833557,1614.293701 
	C510.575928,1609.214355 487.342010,1604.024414 464.120544,1598.781616 
	C439.882111,1593.309326 427.811554,1574.055176 433.236420,1549.839111 
	C448.775665,1480.473511 464.291016,1411.102661 479.806183,1341.731689 
	C484.558899,1320.481567 503.983826,1308.072021 525.403137,1312.702515 
	C538.094482,1315.446167 550.761719,1318.300903 563.881226,1321.152100 
M561.166382,1396.362671 
	C555.286621,1381.004028 544.078308,1378.260620 532.481873,1389.776978 
	C528.044983,1394.183228 524.188660,1399.355591 520.883118,1404.684570 
	C512.050415,1418.924438 506.424133,1434.549072 502.094757,1450.685303 
	C495.619171,1474.820679 491.887177,1499.275146 495.304504,1524.215698 
	C496.317871,1531.611572 498.965088,1539.099609 502.380249,1545.768921 
	C506.495361,1553.805176 514.190063,1555.059204 521.964783,1550.288452 
	C524.074524,1548.993530 526.384521,1547.622070 527.818237,1545.700562 
	C533.166260,1538.533325 539.073914,1531.584229 543.171509,1523.719482 
	C557.131409,1496.925659 563.902527,1468.048584 565.725220,1438.006226 
	C566.564453,1424.175415 566.248047,1410.366211 561.166382,1396.362671 
M542.677246,1363.819092 
	C547.283142,1369.993530 554.149902,1371.702148 560.087646,1368.151367 
	C565.466248,1364.934937 567.486084,1357.891602 564.737915,1351.935181 
	C562.142029,1346.308960 555.280212,1343.644653 549.032654,1345.837402 
	C542.270630,1348.210571 539.789612,1354.622803 542.677246,1363.819092 
z"/>
<path fill="#168508" opacity="1.000000" stroke="none" 
	d="
M561.322571,1396.716431 
	C566.248047,1410.366211 566.564453,1424.175415 565.725220,1438.006226 
	C563.902527,1468.048584 557.131409,1496.925659 543.171509,1523.719482 
	C539.073914,1531.584229 533.166260,1538.533325 527.818237,1545.700562 
	C526.384521,1547.622070 524.074524,1548.993530 521.964783,1550.288452 
	C514.190063,1555.059204 506.495361,1553.805176 502.380249,1545.768921 
	C498.965088,1539.099609 496.317871,1531.611572 495.304504,1524.215698 
	C491.887177,1499.275146 495.619171,1474.820679 502.094757,1450.685303 
	C506.424133,1434.549072 512.050415,1418.924438 520.883118,1404.684570 
	C524.188660,1399.355591 528.044983,1394.183228 532.481873,1389.776978 
	C544.078308,1378.260620 555.286621,1381.004028 561.322571,1396.716431 
M541.046204,1513.418579 
	C544.081604,1504.267334 547.518005,1495.226440 550.071167,1485.942627 
	C555.873535,1464.844482 559.653870,1443.354858 558.758118,1421.397095 
	C558.437195,1413.529419 556.987732,1405.475342 554.566345,1397.987305 
	C551.844116,1389.568726 544.615967,1388.111328 538.105103,1394.149292 
	C534.376709,1397.606689 530.849487,1401.652344 528.424683,1406.085693 
	C508.381073,1442.731567 499.800140,1482.175537 501.353241,1523.746826 
	C501.610352,1530.628662 504.310120,1537.645508 507.002289,1544.134766 
	C508.973877,1548.887329 513.923279,1549.669800 518.483093,1547.083862 
	C520.474915,1545.954346 522.359436,1544.472534 523.945374,1542.817749 
	C531.817383,1534.604126 536.372620,1524.408447 541.046204,1513.418579 
z"/>
<path fill="#1C0F1A" opacity="1.000000" stroke="none" 
	d="
M542.498291,1363.503906 
	C539.789612,1354.622803 542.270630,1348.210571 549.032654,1345.837402 
	C555.280212,1343.644653 562.142029,1346.308960 564.737915,1351.935181 
	C567.486084,1357.891602 565.466248,1364.934937 560.087646,1368.151367 
	C554.149902,1371.702148 547.283142,1369.993530 542.498291,1363.503906 
z"/>
<path fill="#B5FC65" opacity="1.000000" stroke="none" 
	d="
M540.905640,1513.775879 
	C536.372620,1524.408447 531.817383,1534.604126 523.945374,1542.817749 
	C522.359436,1544.472534 520.474915,1545.954346 518.483093,1547.083862 
	C513.923279,1549.669800 508.973877,1548.887329 507.002289,1544.134766 
	C504.310120,1537.645508 501.610352,1530.628662 501.353241,1523.746826 
	C499.800140,1482.175537 508.381073,1442.731567 528.424683,1406.085693 
	C530.849487,1401.652344 534.376709,1397.606689 538.105103,1394.149292 
	C544.615967,1388.111328 551.844116,1389.568726 554.566345,1397.987305 
	C556.987732,1405.475342 558.437195,1413.529419 558.758118,1421.397095 
	C559.653870,1443.354858 555.873535,1464.844482 550.071167,1485.942627 
	C547.518005,1495.226440 544.081604,1504.267334 540.905640,1513.775879 
z"/>
</svg>